<?xml version="1.0" standalone="no"?>
<!DOCTYPE svg PUBLIC "-//W3C//DTD SVG 20010904//EN"
 "http://www.w3.org/TR/2001/REC-SVG-20010904/DTD/svg10.dtd">
<svg version="1.0" xmlns="http://www.w3.org/2000/svg"
 width="168.000000pt" height="168.000000pt" viewBox="0 0 168.000000 168.000000"
 preserveAspectRatio="xMidYMid meet">
<metadata>
Created by potrace 1.14, written by Peter Selinger 2001-2017
</metadata>
<g transform="translate(0.000000,168.000000) scale(0.100000,-0.100000)"
fill="#000000" stroke="none">
<path d="M670 1674 c-14 -3 -58 -14 -98 -25 -314 -84 -544 -364 -568 -691 -10
-131 -101 -118 841 -118 l805 0 16 25 c13 20 15 40 11 98 -27 327 -258 603
-582 693 -59 16 -366 29 -425 18z m395 -136 c62 -17 99 -33 195 -84 46 -24
147 -128 193 -197 43 -65 94 -198 101 -264 l3 -33 -717 0 -717 0 4 37 c2 21
15 71 29 113 74 220 257 384 489 436 92 20 333 16 420 -8z"/>
<path d="M512 1320 c-29 -12 -40 -42 -36 -99 4 -74 64 -102 106 -51 25 31 19
117 -11 141 -26 21 -27 21 -59 9z"/>
<path d="M815 1318 c-30 -17 -35 -28 -35 -84 0 -56 13 -80 50 -89 42 -10 70
25 70 88 -1 74 -38 111 -85 85z"/>
<path d="M1122 1319 c-28 -11 -45 -53 -39 -102 7 -63 56 -92 97 -59 17 14 22
29 22 74 2 76 -26 107 -80 87z"/>
<path d="M20 700 c-25 -25 -25 -51 -2 -80 l18 -23 802 0 c758 0 803 1 822 18
25 23 26 59 0 85 -19 19 -39 19 -820 19 -781 0 -801 0 -820 -19z"/>
<path d="M32 466 c-29 -16 -32 -28 -31 -132 1 -90 5 -108 30 -162 33 -67 81
-115 148 -146 45 -21 60 -21 647 -24 585 -3 603 -2 656 18 71 26 132 80 165
144 21 41 27 69 31 148 5 115 0 141 -30 155 -18 7 -256 11 -289 4 -4 0 -54
-36 -112 -80 l-106 -79 -108 79 c-59 44 -110 80 -113 80 -27 7 -874 2 -888 -5z
m970 -199 c64 -48 124 -87 133 -87 24 0 50 16 162 100 l102 77 78 -1 78 -1 3
-42 c4 -57 -26 -123 -74 -159 l-37 -29 -586 -3 c-510 -2 -591 -1 -627 13 -73
28 -114 92 -114 180 l0 41 383 -1 382 0 117 -88z"/>
</g>
</svg>
